<?xml version="1.0" encoding="utf-8"?>
<!-- Generator: Adobe Illustrator 24.0.1, SVG Export Plug-In . SVG Version: 6.00 Build 0)  -->
<svg version="1.1" id="Layer_1" xmlns="http://www.w3.org/2000/svg" xmlns:xlink="http://www.w3.org/1999/xlink" x="0px" y="0px"
	 viewBox="0 0 1005 118.92" style="enable-background:new 0 0 1005 118.92;" xml:space="preserve">
<style type="text/css">
	.st0{fill:#FC6471;}
	.st1{font-family:'Rubik-Bold';}
	.st2{font-size:169.5882px;}
</style>
<g>
	<text transform="matrix(1 0 0 1 398.3825 118.1484)" class="st0 st1 st2">Fractal</text>
	<path class="st0" d="M361.67,46.61c-1.88,0-3.48,1.44-3.61,3.32c-1.71,24.55-22.23,44-47.2,44c-24.98,0-45.49-19.45-47.2-44
		c-0.13-1.88-1.72-3.32-3.61-3.32h-17.8c-1.88,0-3.48,1.44-3.61,3.32c-1.71,24.55-22.23,44-47.2,44s-45.49-19.45-47.2-44
		c-0.13-1.88-1.72-3.32-3.61-3.32h-17.8c-1.88,0-3.48,1.44-3.61,3.32c-1.71,24.55-22.23,44-47.2,44s-45.49-19.45-47.2-44
		c-0.13-1.88-1.72-3.32-3.61-3.32H3.64c-2.1,0-3.75,1.78-3.64,3.88c2.02,37.96,33.55,68.22,72,68.22
		c23.07,0,43.64-10.89,56.84-27.79c1.47-1.88,4.27-1.88,5.74,0c13.21,16.91,33.78,27.79,56.84,27.79s43.64-10.89,56.84-27.79
		c1.47-1.88,4.27-1.88,5.74,0c13.21,16.91,33.78,27.79,56.84,27.79c38.46,0,69.98-30.26,72-68.22c0.11-2.1-1.53-3.88-3.64-3.88
		H361.67z"/>
	<path class="st0" d="M48.26,29.71h-2.07c-7.52,0-13.61-6.09-13.61-13.61v-2.07c0-7.52,6.09-13.61,13.61-13.61h2.07
		c7.52,0,13.61,6.09,13.61,13.61v2.07C61.87,23.61,55.77,29.71,48.26,29.71z"/>
	<path class="st0" d="M93.32,29.71h-2.07c-7.52,0-13.61-6.09-13.61-13.61v-2.07c0-7.52,6.09-13.61,13.61-13.61h2.07
		c7.52,0,13.61,6.09,13.61,13.61v2.07C106.94,23.61,100.84,29.71,93.32,29.71z"/>
	<path class="st0" d="M169.94,29.71h-2.07c-7.52,0-13.61-6.09-13.61-13.61v-2.07c0-7.52,6.09-13.61,13.61-13.61h2.07
		c7.52,0,13.61,6.09,13.61,13.61v2.07C183.55,23.61,177.45,29.71,169.94,29.71z"/>
	<path class="st0" d="M215,29.71h-2.07c-7.52,0-13.61-6.09-13.61-13.61v-2.07c0-7.52,6.09-13.61,13.61-13.61H215
		c7.52,0,13.61,6.09,13.61,13.61v2.07C228.61,23.61,222.52,29.71,215,29.71z"/>
	<path class="st0" d="M289.36,29.71h-2.07c-7.52,0-13.61-6.09-13.61-13.61v-2.07c0-7.52,6.09-13.61,13.61-13.61h2.07
		c7.52,0,13.61,6.09,13.61,13.61v2.07C302.97,23.61,296.88,29.71,289.36,29.71z"/>
	<path class="st0" d="M334.43,29.71h-2.07c-7.52,0-13.61-6.09-13.61-13.61v-2.07c0-7.52,6.09-13.61,13.61-13.61h2.07
		c7.52,0,13.61,6.09,13.61,13.61v2.07C348.04,23.61,341.95,29.71,334.43,29.71z"/>
</g>
</svg>
