<?xml version="1.0" encoding="utf-8"?>
<!-- Generator: Adobe Illustrator 24.0.1, SVG Export Plug-In . SVG Version: 6.00 Build 0)  -->
<svg version="1.1" id="Layer_1" xmlns="http://www.w3.org/2000/svg" xmlns:xlink="http://www.w3.org/1999/xlink" x="0px" y="0px"
	 viewBox="0 0 1005 118.92" style="enable-background:new 0 0 1005 118.92;" xml:space="preserve">
<style type="text/css">
	.st0{enable-background:new    ;}
	.st1{fill:#FC6471;}
</style>
<g>
	<g class="st0">
		<path class="st1" d="M414.49,118.15c-1.25,0-2.26-0.42-3.05-1.27c-0.79-0.85-1.19-1.84-1.19-2.97V3.68c0-1.24,0.4-2.26,1.19-3.05
			c0.79-0.79,1.81-1.19,3.05-1.19h78.01c1.24,0,2.26,0.4,3.05,1.19c0.79,0.79,1.19,1.81,1.19,3.05V20.8c0,1.25-0.4,2.26-1.19,3.05
			c-0.79,0.79-1.81,1.19-3.05,1.19h-52.4v24.93h49.01c1.24,0,2.26,0.42,3.05,1.27c0.79,0.85,1.19,1.89,1.19,3.14v16.96
			c0,1.13-0.4,2.12-1.19,2.97c-0.79,0.85-1.81,1.27-3.05,1.27H440.1v38.33c0,1.13-0.4,2.12-1.19,2.97
			c-0.79,0.85-1.81,1.27-3.05,1.27H414.49z"/>
		<path class="st1" d="M515.91,118.15c-1.25,0-2.26-0.42-3.05-1.27c-0.79-0.85-1.19-1.84-1.19-2.97V34.2c0-1.13,0.39-2.12,1.19-2.97
			c0.79-0.85,1.81-1.27,3.05-1.27h19.5c1.24,0,2.29,0.42,3.14,1.27s1.27,1.84,1.27,2.97v6.78c2.94-3.5,6.53-6.22,10.77-8.14
			c4.24-1.92,9.01-2.88,14.33-2.88h7.46c1.24,0,2.26,0.4,3.05,1.19c0.79,0.79,1.19,1.81,1.19,3.05v17.47c0,1.13-0.4,2.12-1.19,2.97
			c-0.79,0.85-1.81,1.27-3.05,1.27h-16.45c-4.64,0-8.23,1.27-10.77,3.82c-2.54,2.54-3.82,6.13-3.82,10.77v43.42
			c0,1.13-0.42,2.12-1.27,2.97c-0.85,0.85-1.89,1.27-3.14,1.27H515.91z"/>
		<path class="st1" d="M613.59,119.84c-6.11,0-11.56-1.16-16.37-3.48c-4.81-2.32-8.62-5.45-11.45-9.41
			c-2.83-3.96-4.24-8.42-4.24-13.4c0-8.03,3.28-14.39,9.84-19.08c6.56-4.69,15.26-7.89,26.12-9.58l21.2-3.22V59.3
			c0-4.07-0.85-7.18-2.54-9.33c-1.7-2.15-4.81-3.22-9.33-3.22c-3.17,0-5.74,0.62-7.72,1.87c-1.98,1.25-3.54,2.94-4.66,5.09
			c-1.02,1.47-2.43,2.2-4.24,2.2h-18.99c-1.25,0-2.21-0.37-2.88-1.1c-0.68-0.73-0.96-1.61-0.85-2.63c0-2.04,0.76-4.38,2.29-7.04
			c1.53-2.66,3.87-5.28,7.04-7.89c3.16-2.6,7.23-4.75,12.21-6.44c4.97-1.7,11.02-2.54,18.15-2.54c7.23,0,13.45,0.85,18.66,2.54
			c5.2,1.7,9.44,4.07,12.72,7.12c3.28,3.05,5.68,6.64,7.21,10.77c1.53,4.13,2.29,8.68,2.29,13.65v51.56c0,1.13-0.42,2.12-1.27,2.97
			c-0.85,0.85-1.84,1.27-2.97,1.27h-19.67c-1.25,0-2.26-0.42-3.05-1.27c-0.79-0.85-1.19-1.84-1.19-2.97v-5.94
			c-1.47,2.15-3.45,4.13-5.94,5.94c-2.49,1.81-5.4,3.25-8.73,4.32C621.87,119.31,618,119.84,613.59,119.84z M621.56,100.51
			c3.28,0,6.25-0.71,8.9-2.12c2.66-1.41,4.75-3.62,6.27-6.61c1.53-2.99,2.29-6.75,2.29-11.28v-2.37l-14.42,2.54
			c-5.32,0.91-9.19,2.29-11.62,4.15c-2.43,1.87-3.65,4.04-3.65,6.53c0,1.92,0.56,3.56,1.7,4.92c1.13,1.36,2.63,2.4,4.49,3.14
			C617.41,100.15,619.41,100.51,621.56,100.51z"/>
		<path class="st1" d="M727.72,119.84c-8.37,0-15.77-1.53-22.22-4.58s-11.56-7.49-15.35-13.31c-3.79-5.82-5.85-12.8-6.19-20.94
			c-0.11-1.81-0.17-4.1-0.17-6.87c0-2.77,0.06-5.06,0.17-6.87c0.34-8.25,2.37-15.29,6.1-21.11c3.73-5.82,8.85-10.26,15.35-13.31
			c6.5-3.05,13.93-4.58,22.3-4.58c7.8,0,14.5,1.1,20.1,3.31c5.6,2.21,10.12,4.95,13.57,8.23c3.45,3.28,6.05,6.64,7.8,10.09
			c1.75,3.45,2.68,6.47,2.8,9.07c0.11,1.13-0.28,2.12-1.19,2.97c-0.91,0.85-1.92,1.27-3.05,1.27h-21.54c-1.25,0-2.2-0.28-2.88-0.85
			c-0.68-0.56-1.3-1.41-1.87-2.54c-1.36-3.5-3.08-5.99-5.17-7.46c-2.09-1.47-4.78-2.21-8.06-2.21c-4.52,0-8,1.47-10.43,4.41
			c-2.43,2.94-3.76,7.46-3.99,13.57c-0.11,4.52-0.11,8.54,0,12.04c0.34,6.22,1.7,10.74,4.07,13.57c2.37,2.83,5.82,4.24,10.34,4.24
			c3.5,0,6.28-0.76,8.31-2.29s3.67-3.99,4.92-7.38c0.56-1.13,1.19-1.98,1.87-2.54c0.68-0.56,1.64-0.85,2.88-0.85h21.54
			c1.13,0,2.15,0.4,3.05,1.19c0.9,0.79,1.3,1.81,1.19,3.05c-0.11,1.81-0.68,4.01-1.7,6.61c-1.02,2.6-2.6,5.32-4.75,8.14
			c-2.15,2.83-4.95,5.43-8.39,7.8c-3.45,2.37-7.6,4.32-12.46,5.85C739.82,119.08,734.17,119.84,727.72,119.84z"/>
		<path class="st1" d="M832.36,118.15c-7.24,0-13.48-1.16-18.74-3.48c-5.26-2.32-9.3-5.94-12.13-10.85
			c-2.83-4.92-4.24-11.28-4.24-19.08V52.18h-13.23c-1.25,0-2.29-0.39-3.14-1.19c-0.85-0.79-1.27-1.81-1.27-3.05V34.2
			c0-1.24,0.42-2.26,1.27-3.05c0.85-0.79,1.89-1.19,3.14-1.19h13.23V1.98c0-1.24,0.42-2.26,1.27-3.05c0.85-0.79,1.84-1.19,2.97-1.19
			h19.67c1.24,0,2.26,0.4,3.05,1.19c0.79,0.79,1.19,1.81,1.19,3.05v27.98h21.2c1.24,0,2.29,0.4,3.14,1.19
			c0.85,0.79,1.27,1.81,1.27,3.05v13.74c0,1.25-0.42,2.26-1.27,3.05c-0.85,0.79-1.89,1.19-3.14,1.19h-21.2v30.19
			c0,3.84,0.73,6.9,2.2,9.16c1.47,2.26,3.96,3.39,7.46,3.39h13.06c1.24,0,2.26,0.4,3.05,1.19c0.79,0.79,1.19,1.81,1.19,3.05v14.75
			c0,1.13-0.4,2.12-1.19,2.97c-0.79,0.85-1.81,1.27-3.05,1.27H832.36z"/>
		<path class="st1" d="M892.9,119.84c-6.1,0-11.56-1.16-16.37-3.48c-4.81-2.32-8.62-5.45-11.45-9.41c-2.83-3.96-4.24-8.42-4.24-13.4
			c0-8.03,3.28-14.39,9.84-19.08c6.56-4.69,15.26-7.89,26.12-9.58l21.2-3.22V59.3c0-4.07-0.85-7.18-2.54-9.33
			c-1.7-2.15-4.81-3.22-9.33-3.22c-3.17,0-5.74,0.62-7.72,1.87c-1.98,1.25-3.54,2.94-4.66,5.09c-1.02,1.47-2.43,2.2-4.24,2.2h-18.99
			c-1.25,0-2.2-0.37-2.88-1.1c-0.68-0.73-0.96-1.61-0.85-2.63c0-2.04,0.76-4.38,2.29-7.04c1.53-2.66,3.87-5.28,7.04-7.89
			c3.16-2.6,7.23-4.75,12.21-6.44c4.97-1.7,11.02-2.54,18.15-2.54c7.23,0,13.45,0.85,18.65,2.54c5.2,1.7,9.44,4.07,12.72,7.12
			c3.28,3.05,5.68,6.64,7.21,10.77c1.53,4.13,2.29,8.68,2.29,13.65v51.56c0,1.13-0.42,2.12-1.27,2.97
			c-0.85,0.85-1.84,1.27-2.97,1.27h-19.67c-1.25,0-2.26-0.42-3.05-1.27c-0.79-0.85-1.19-1.84-1.19-2.97v-5.94
			c-1.47,2.15-3.45,4.13-5.94,5.94c-2.49,1.81-5.4,3.25-8.73,4.32C901.18,119.31,897.31,119.84,892.9,119.84z M900.87,100.51
			c3.28,0,6.25-0.71,8.9-2.12c2.66-1.41,4.75-3.62,6.28-6.61c1.53-2.99,2.29-6.75,2.29-11.28v-2.37l-14.42,2.54
			c-5.32,0.91-9.19,2.29-11.62,4.15c-2.43,1.87-3.65,4.04-3.65,6.53c0,1.92,0.56,3.56,1.7,4.92c1.13,1.36,2.63,2.4,4.49,3.14
			C896.72,100.15,898.72,100.51,900.87,100.51z"/>
		<path class="st1" d="M970.74,118.15c-1.25,0-2.26-0.42-3.05-1.27c-0.79-0.85-1.19-1.84-1.19-2.97V1.98c0-1.24,0.39-2.26,1.19-3.05
			c0.79-0.79,1.81-1.19,3.05-1.19h20.01c1.24,0,2.26,0.4,3.05,1.19c0.79,0.79,1.19,1.81,1.19,3.05v111.93c0,1.13-0.4,2.12-1.19,2.97
			c-0.79,0.85-1.81,1.27-3.05,1.27H970.74z"/>
	</g>
	<g>
		<path class="st1" d="M361.67,46.61c-1.88,0-3.48,1.44-3.61,3.32c-1.71,24.55-22.23,44-47.2,44c-24.98,0-45.49-19.45-47.2-44
			c-0.13-1.88-1.72-3.32-3.61-3.32h-17.8c-1.88,0-3.48,1.44-3.61,3.32c-1.71,24.55-22.23,44-47.2,44s-45.49-19.45-47.2-44
			c-0.13-1.88-1.72-3.32-3.61-3.32h-17.8c-1.88,0-3.48,1.44-3.61,3.32c-1.71,24.55-22.23,44-47.2,44s-45.49-19.45-47.2-44
			c-0.13-1.88-1.72-3.32-3.61-3.32H3.64c-2.1,0-3.75,1.78-3.64,3.88c2.02,37.96,33.55,68.22,72,68.22
			c23.07,0,43.64-10.89,56.84-27.79c1.47-1.88,4.27-1.88,5.74,0c13.21,16.91,33.78,27.79,56.84,27.79s43.64-10.89,56.84-27.79
			c1.47-1.88,4.27-1.88,5.74,0c13.21,16.91,33.78,27.79,56.84,27.79c38.46,0,69.98-30.26,72-68.22c0.11-2.1-1.53-3.88-3.64-3.88
			C379.2,46.61,361.67,46.61,361.67,46.61z"/>
	</g>
	<g>
		<path class="st1" d="M48.26,29.71h-2.07c-7.52,0-13.61-6.09-13.61-13.61v-2.07c0-7.52,6.09-13.61,13.61-13.61h2.07
			c7.52,0,13.61,6.09,13.61,13.61v2.07C61.87,23.61,55.77,29.71,48.26,29.71z"/>
	</g>
	<g>
		<path class="st1" d="M93.32,29.71h-2.07c-7.52,0-13.61-6.09-13.61-13.61v-2.07c0-7.52,6.09-13.61,13.61-13.61h2.07
			c7.52,0,13.61,6.09,13.61,13.61v2.07C106.94,23.61,100.84,29.71,93.32,29.71z"/>
	</g>
	<g>
		<path class="st1" d="M169.94,29.71h-2.07c-7.52,0-13.61-6.09-13.61-13.61v-2.07c0-7.52,6.09-13.61,13.61-13.61h2.07
			c7.52,0,13.61,6.09,13.61,13.61v2.07C183.55,23.61,177.45,29.71,169.94,29.71z"/>
	</g>
	<g>
		<path class="st1" d="M215,29.71h-2.07c-7.52,0-13.61-6.09-13.61-13.61v-2.07c0-7.52,6.09-13.61,13.61-13.61H215
			c7.52,0,13.61,6.09,13.61,13.61v2.07C228.61,23.61,222.52,29.71,215,29.71z"/>
	</g>
	<g>
		<path class="st1" d="M289.36,29.71h-2.07c-7.52,0-13.61-6.09-13.61-13.61v-2.07c0-7.52,6.09-13.61,13.61-13.61h2.07
			c7.52,0,13.61,6.09,13.61,13.61v2.07C302.97,23.61,296.88,29.71,289.36,29.71z"/>
	</g>
	<g>
		<path class="st1" d="M334.43,29.71h-2.07c-7.52,0-13.61-6.09-13.61-13.61v-2.07c0-7.52,6.09-13.61,13.61-13.61h2.07
			c7.52,0,13.61,6.09,13.61,13.61v2.07C348.04,23.61,341.95,29.71,334.43,29.71z"/>
	</g>
</g>
</svg>
