<?xml version="1.0" encoding="utf-8"?>
<!-- Generator: Adobe Illustrator 24.0.1, SVG Export Plug-In . SVG Version: 6.00 Build 0)  -->
<svg version="1.1" id="Layer_1" xmlns="http://www.w3.org/2000/svg" xmlns:xlink="http://www.w3.org/1999/xlink" x="0px" y="0px"
	 viewBox="0 0 76.42 71.4" style="enable-background:new 0 0 76.42 71.4;" xml:space="preserve">
<style type="text/css">
	.st0{fill:#0057FF;}
</style>
<path class="st0" d="M76.42,31.95L40.08,0.69c-1.07-0.92-2.66-0.92-3.73,0L0,31.95h5.77c1.58,0,2.86,1.28,2.86,2.86v33.72
	c0,1.58,1.28,2.86,2.86,2.86h24.88c1.58,0,2.86-1.28,2.86-2.86V47.96c0-1.58,1.28-2.86,2.86-2.86h10.71c1.58,0,2.86,1.28,2.86,2.86
	v20.57c0,1.58,1.28,2.86,2.86,2.86h6.39c1.58,0,2.86-1.28,2.86-2.86V34.82c0-1.58,1.28-2.86,2.86-2.86H76.42z"/>
</svg>
