<?xml version="1.0" encoding="utf-8"?>
<!-- Generator: Adobe Illustrator 24.0.1, SVG Export Plug-In . SVG Version: 6.00 Build 0)  -->
<svg version="1.1" id="Layer_1" xmlns="http://www.w3.org/2000/svg" xmlns:xlink="http://www.w3.org/1999/xlink" x="0px" y="0px"
	 viewBox="0 0 99.21 118.92" style="enable-background:new 0 0 99.21 118.92;" xml:space="preserve">
<style type="text/css">
	.st0{fill:#0057FF;}
</style>
<path class="st0" d="M48.86,57.28c7.87,0,14.68-2.82,20.25-8.39c5.57-5.57,8.39-12.38,8.39-20.25c0-7.87-2.82-14.68-8.39-20.25
	C63.54,2.82,56.73,0,48.86,0c-7.87,0-14.68,2.82-20.25,8.39s-8.39,12.38-8.39,20.25c0,7.87,2.82,14.68,8.39,20.25
	C34.18,54.46,40.99,57.28,48.86,57.28z"/>
<path class="st0" d="M98.97,91.44c-0.16-2.32-0.49-4.84-0.96-7.51c-0.48-2.69-1.1-5.23-1.85-7.55c-0.77-2.4-1.81-4.77-3.11-7.05
	c-1.34-2.36-2.92-4.41-4.68-6.1c-1.85-1.77-4.11-3.19-6.73-4.23c-2.61-1.03-5.5-1.55-8.59-1.55c-1.21,0-2.39,0.5-4.66,1.97
	c-1.4,0.91-3.03,1.96-4.85,3.13c-1.56,0.99-3.67,1.92-6.27,2.76c-2.54,0.82-5.13,1.24-7.67,1.24c-2.55,0-5.13-0.42-7.68-1.24
	c-2.6-0.84-4.71-1.77-6.27-2.76c-1.8-1.15-3.44-2.21-4.85-3.13c-2.26-1.48-3.44-1.97-4.65-1.97c-3.09,0-5.98,0.52-8.59,1.56
	c-2.61,1.04-4.88,2.46-6.73,4.23c-1.77,1.69-3.34,3.74-4.68,6.1c-1.29,2.27-2.34,4.64-3.11,7.05c-0.74,2.32-1.36,4.86-1.85,7.55
	c-0.48,2.67-0.8,5.19-0.96,7.52C0.08,93.72,0,96.08,0,98.47c0,6.21,1.97,11.23,5.86,14.94c3.84,3.66,8.93,5.51,15.11,5.51h57.26
	c6.18,0,11.27-1.85,15.11-5.51c3.89-3.7,5.87-8.73,5.87-14.94C99.21,96.07,99.13,93.71,98.97,91.44z"/>
</svg>
