<?xml version="1.0" encoding="utf-8"?>
<!-- Generator: Adobe Illustrator 24.0.1, SVG Export Plug-In . SVG Version: 6.00 Build 0)  -->
<svg version="1.1" xmlns="http://www.w3.org/2000/svg" xmlns:xlink="http://www.w3.org/1999/xlink" x="0px" y="0px"
	 viewBox="0 0 131.2 36.55" style="enable-background:new 0 0 131.2 36.55;" xml:space="preserve">
<style type="text/css">
	.st0{fill:#F2EFEA;}
	.st1{fill:#0D63C9;}
	.st2{fill:#3F6654;}
	.st3{fill:#F5643E;}
	.st4{fill:#FF731E;}
	.st5{fill:#0C2242;}
	.st6{fill:#0C1B33;}
	.st7{opacity:0.4;}
	.st8{fill-rule:evenodd;clip-rule:evenodd;fill:#FF731E;}
	.st9{opacity:0.4;fill-rule:evenodd;clip-rule:evenodd;fill:#FF731E;}
	.st10{fill-rule:evenodd;clip-rule:evenodd;fill:#F5643E;}
	.st11{opacity:0.4;fill-rule:evenodd;clip-rule:evenodd;fill:#F5643E;}
	.st12{fill:#FF6840;}
	.st13{fill:none;stroke:#F5643E;stroke-miterlimit:10;}
	.st14{fill:#BD806E;}
	.st15{fill:#FFFFFF;}
	.st16{fill:#BF4E30;}
	.st17{fill:#E69A85;}
	.st18{fill:#963D26;}
	.st19{fill:#B07666;}
	.st20{fill:#E66B4A;}
	.st21{fill:none;stroke:#BF4E30;stroke-width:5;stroke-miterlimit:10;}
	.st22{fill:none;stroke:#BF4E30;stroke-miterlimit:10;}
	.st23{fill:none;stroke:#BF4E30;stroke-miterlimit:10;stroke-dasharray:3.9447,3.9447;}
	.st24{fill:#D9927D;}
	.st25{fill:#EDA089;}
	.st26{fill:#7D5448;}
	.st27{fill:#543830;}
	.st28{fill:#A68F89;}
	.st29{fill:#BD7F6D;stroke:#7D5448;stroke-miterlimit:10;}
	.st30{fill:#7D3320;}
	.st31{fill:#471D12;}
	.st32{fill:#D9D7D2;}
	.st33{fill:#0B2E1F;}
	.st34{fill:#BD7F6D;stroke:#7D5448;stroke-width:6;stroke-miterlimit:10;}
	.st35{fill:#612719;}
	.st36{fill:#993E27;}
	.st37{fill:#A6442A;}
	.st38{fill:#A14229;}
	.st39{fill:#612819;}
	.st40{fill:#9E4128;}
	.st41{fill:none;stroke:#BF4E30;stroke-width:2;stroke-miterlimit:10;}
	.st42{fill:#2C473B;}
	.st43{fill:#062619;}
	.st44{fill:#70A07C;}
	.st45{fill:#51675E;}
	.st46{fill:#72B898;}
	.st47{fill:#35A8E0;}
	.st48{fill:#F59B3E;}
	.st49{display:none;}
	.st50{display:inline;fill:#F5643E;fill-opacity:0.13;}
</style>
<g id="Layer_2">
</g>
<g id="Layer_1">
	<g>
		<g>
			<path class="st2" d="M127.1,27.93c-1.8,0-7.17-0.7-13.61-8.11c-7.1-8.17-10.65-9.66-15.06-9.65c-4.43-0.01-7.97,1.48-15.07,9.65
				c-7.03,8.08-12.79,8.18-14.01,8.09h-0.31v-4.65l0.66,0.01c0.43,0,4.61-0.13,10.15-6.51c7.23-8.32,12.1-11.27,18.58-11.25
				c6.48-0.01,11.34,2.93,18.57,11.25c5.57,6.41,9.76,6.51,10.16,6.51l0.17-0.03l0.08,0.02h0.41v4.65h-0.31
				C127.4,27.93,127.27,27.93,127.1,27.93z"/>
		</g>
	</g>
	<path class="st3" d="M70.98,28.99h-3.88c-0.8,0-1.44-0.64-1.44-1.44v-3.88c0-0.8,0.64-1.44,1.44-1.44h3.88
		c0.8,0,1.44,0.64,1.44,1.44v3.88C72.42,28.34,71.77,28.99,70.98,28.99z"/>
	<path class="st3" d="M129.43,28.99h-3.24c-0.97,0-1.76-0.79-1.76-1.76v-3.24c0-0.97,0.79-1.76,1.76-1.76h3.24
		c0.97,0,1.76,0.79,1.76,1.76v3.24C131.2,28.2,130.41,28.99,129.43,28.99z"/>
	<path class="st2" d="M11.66,29.24c-1.57,0-2.88-0.27-3.92-0.81c-1.04-0.54-1.9-1.23-2.58-2.07v1.5c0,0.27-0.09,0.5-0.26,0.69
		c-0.18,0.19-0.41,0.28-0.71,0.28H0.97c-0.27,0-0.5-0.09-0.69-0.28C0.09,28.36,0,28.13,0,27.86V0.97c0-0.27,0.09-0.5,0.28-0.69
		C0.47,0.1,0.7,0,0.97,0h3.45c0.3,0,0.53,0.1,0.71,0.28C5.31,0.47,5.4,0.7,5.4,0.97v9.02c0.68-0.79,1.52-1.43,2.54-1.93
		c1.02-0.5,2.25-0.75,3.72-0.75c1.43,0,2.68,0.24,3.74,0.73c1.06,0.49,1.94,1.17,2.66,2.05c0.72,0.88,1.27,1.9,1.64,3.07
		c0.38,1.16,0.58,2.42,0.61,3.78c0.03,0.49,0.04,0.93,0.04,1.32c0,0.39-0.01,0.83-0.04,1.32c-0.05,1.41-0.27,2.7-0.65,3.88
		c-0.38,1.18-0.92,2.2-1.62,3.07c-0.7,0.87-1.58,1.54-2.64,2.01C14.34,29.01,13.09,29.24,11.66,29.24z M10.15,24.9
		c1.16,0,2.07-0.25,2.72-0.75c0.65-0.5,1.12-1.16,1.4-1.97c0.28-0.81,0.45-1.71,0.51-2.68c0.05-0.81,0.05-1.62,0-2.44
		c-0.05-0.97-0.22-1.87-0.51-2.68c-0.28-0.81-0.75-1.47-1.4-1.97c-0.65-0.5-1.56-0.75-2.72-0.75c-1.08,0-1.96,0.24-2.64,0.73
		c-0.68,0.49-1.19,1.1-1.54,1.85c-0.35,0.75-0.54,1.52-0.57,2.34c-0.03,0.49-0.04,1.01-0.04,1.56c0,0.56,0.01,1.08,0.04,1.56
		c0.05,0.84,0.24,1.66,0.55,2.46c0.31,0.8,0.81,1.46,1.5,1.97C8.14,24.64,9.04,24.9,10.15,24.9z"/>
	<path class="st2" d="M25.83,28.84c-0.27,0-0.5-0.09-0.69-0.28c-0.19-0.19-0.28-0.42-0.28-0.69V8.73c0-0.3,0.09-0.54,0.28-0.73
		c0.19-0.19,0.42-0.28,0.69-0.28h3.29c0.27,0,0.51,0.1,0.71,0.28c0.2,0.19,0.3,0.43,0.3,0.73v1.67c0.62-0.87,1.43-1.53,2.42-1.99
		c0.99-0.46,2.13-0.69,3.43-0.69h1.67c0.3,0,0.53,0.1,0.71,0.28c0.18,0.19,0.26,0.42,0.26,0.69v2.92c0,0.27-0.09,0.5-0.26,0.69
		c-0.18,0.19-0.41,0.28-0.71,0.28h-3.17c-1.3,0-2.31,0.37-3.03,1.1c-0.72,0.73-1.08,1.73-1.08,3.01v11.17c0,0.27-0.1,0.5-0.28,0.69
		c-0.19,0.19-0.43,0.28-0.73,0.28H25.83z"/>
	<path class="st2" d="M46.88,36.55c-0.22,0-0.41-0.08-0.57-0.24c-0.16-0.16-0.24-0.35-0.24-0.57c0-0.11,0.01-0.21,0.02-0.3
		c0.01-0.1,0.06-0.21,0.14-0.35l3.17-7.51l-7.8-18.4c-0.11-0.27-0.16-0.46-0.16-0.57c0.03-0.24,0.12-0.45,0.28-0.63
		c0.16-0.18,0.37-0.26,0.61-0.26h3.29c0.32,0,0.57,0.08,0.73,0.24c0.16,0.16,0.28,0.34,0.37,0.53l5.4,13.28l5.56-13.28
		c0.08-0.22,0.2-0.4,0.37-0.55c0.16-0.15,0.41-0.22,0.73-0.22h3.25c0.22,0,0.41,0.08,0.59,0.24c0.18,0.16,0.26,0.35,0.26,0.57
		c0,0.16-0.05,0.38-0.16,0.65l-11.49,26.6c-0.11,0.22-0.24,0.4-0.41,0.55c-0.16,0.15-0.41,0.22-0.73,0.22H46.88z"/>
</g>
<g id="Layer_3" class="st49">
</g>
</svg>
