<?xml version="1.0" encoding="utf-8"?>
<!-- Generator: Adobe Illustrator 24.0.1, SVG Export Plug-In . SVG Version: 6.00 Build 0)  -->
<svg version="1.1" id="Layer_1" xmlns="http://www.w3.org/2000/svg" xmlns:xlink="http://www.w3.org/1999/xlink" x="0px" y="0px"
	 viewBox="0 0 83.17 99.61" style="enable-background:new 0 0 83.17 99.61;" xml:space="preserve">
<style type="text/css">
	.st0{fill:#0057FF;stroke:#0057FF;stroke-miterlimit:10;}
</style>
<g>
	<path class="st0" d="M80.12,69.99c-6.21-5.25-9.77-12.93-9.77-21.06V37.48c0-14.46-10.74-26.43-24.65-28.43V4.61
		c0-2.27-1.84-4.11-4.11-4.11c-2.27,0-4.11,1.84-4.11,4.11v4.44c-13.92,2-24.65,13.97-24.65,28.43v11.45
		c0,8.13-3.56,15.81-9.81,21.09c-1.6,1.37-2.51,3.36-2.51,5.46c0,3.96,3.23,7.19,7.19,7.19h67.79c3.96,0,7.19-3.23,7.19-7.19
		C82.67,73.38,81.76,71.39,80.12,69.99z"/>
	<path class="st0" d="M41.59,99.11c7.44,0,13.67-5.3,15.09-12.33H26.49C27.92,93.8,34.15,99.11,41.59,99.11z"/>
</g>
</svg>
